<?xml version="1.0" standalone="no"?>
<!DOCTYPE svg PUBLIC "-//W3C//DTD SVG 20010904//EN"
 "http://www.w3.org/TR/2001/REC-SVG-20010904/DTD/svg10.dtd">
<svg version="1.0" xmlns="http://www.w3.org/2000/svg"
 width="888.000000pt" height="294.000000pt" viewBox="0 0 888.000000 294.000000"
 preserveAspectRatio="xMidYMid meet">

<g transform="translate(0.000000,294.000000) scale(0.100000,-0.100000)"
fill="#997fb8" stroke="none">
<path d="M1390 1545 l0 -855 80 0 80 0 0 360 c0 337 1 363 20 414 28 74 72
131 128 167 62 39 111 52 201 51 135 -1 229 -68 277 -197 16 -45 19 -90 22
-423 l3 -372 80 0 79 0 0 328 c0 180 -5 368 -10 419 -20 192 -98 305 -249 364
-81 32 -252 33 -331 1 -67 -27 -135 -81 -184 -146 l-36 -49 0 397 0 396 -80 0
-80 0 0 -855z"/>
<path d="M4590 1545 l0 -855 75 0 75 0 0 329 c0 180 5 352 10 382 29 152 131
254 276 277 153 24 279 -36 334 -160 31 -72 40 -182 40 -520 l0 -308 76 0 75
0 -3 413 c-3 404 -4 413 -26 469 -67 166 -172 240 -362 255 -146 11 -273 -43
-364 -155 l-51 -64 -3 396 -2 396 -75 0 -75 0 0 -855z"/>
<path d="M7250 1545 l0 -855 75 0 75 0 0 115 c0 70 4 115 10 115 6 0 10 -4 10
-10 0 -18 123 -141 167 -167 73 -42 159 -65 253 -65 144 -1 250 42 351 142
113 110 172 257 172 425 -1 338 -254 606 -549 581 -156 -13 -270 -80 -375
-220 -27 -36 -29 -37 -30 -15 -1 13 0 201 1 417 l2 392 -81 0 -81 0 0 -855z
m631 135 c196 -37 322 -209 321 -439 0 -185 -85 -332 -231 -399 -48 -22 -70
-26 -156 -27 -92 0 -105 3 -166 31 -219 104 -310 384 -199 611 51 104 152 189
258 218 59 17 105 18 173 5z"/>
<path d="M660 1970 l0 -160 -105 0 -105 0 0 -70 0 -70 104 0 105 0 3 -392 c3
-386 3 -394 26 -443 30 -66 63 -99 125 -125 58 -25 180 -36 242 -23 l40 9 3
65 3 66 -78 -4 c-67 -4 -84 -1 -123 19 -80 41 -80 40 -80 461 l0 367 140 0
140 0 0 70 0 70 -140 0 -140 0 0 160 0 160 -80 0 -80 0 0 -160z"/>
<path d="M3075 1819 c-116 -24 -245 -108 -320 -210 -171 -233 -148 -576 54
-778 252 -252 704 -197 852 104 18 36 30 67 28 69 -2 2 -33 13 -69 24 l-65 20
-24 -47 c-62 -122 -182 -191 -333 -191 -191 0 -373 157 -395 339 l-6 51 458 0
458 0 -7 93 c-13 173 -60 293 -149 385 -61 62 -111 94 -193 122 -70 24 -216
34 -289 19z m260 -158 c100 -44 191 -170 210 -288 l7 -43 -377 0 -377 0 6 38
c23 129 151 272 276 308 67 20 194 12 255 -15z"/>
<path d="M5900 1461 c0 -407 7 -477 56 -578 40 -84 90 -131 184 -177 61 -29
72 -31 180 -31 97 0 124 4 173 24 60 24 163 110 194 162 10 16 21 29 25 29 4
0 8 -45 8 -100 l0 -100 75 0 75 0 0 560 0 560 -80 0 -79 0 -3 -372 c-3 -363
-4 -374 -26 -422 -54 -119 -154 -190 -283 -202 -135 -13 -239 43 -299 160
l-35 69 -3 383 -3 384 -80 0 -79 0 0 -349z"/>
</g>
</svg>
